<?xml version="1.0" standalone="no"?>
<!DOCTYPE svg PUBLIC "-//W3C//DTD SVG 1.1//EN" "http://www.w3.org/Graphics/SVG/1.1/DTD/svg11.dtd" >
<svg xmlns="http://www.w3.org/2000/svg">
<metadata>Generated by IcoMoon</metadata>
<defs>
<font id="icomoon" horiz-adv-x="1024">
<font-face units-per-em="1024" ascent="960" descent="-64" />
<missing-glyph horiz-adv-x="1024" />
<glyph unicode="&#x20;" horiz-adv-x="512" d="" />
<glyph unicode="&#xe600;" glyph-name="back_bt" horiz-adv-x="621" d="M426.667 147.627c-8.533 0-17.067 3.413-23.893 10.24l-211.627 211.627c-42.667 42.667-42.667 114.347 0 157.013l211.627 211.627c13.653 13.653 34.133 13.653 47.787 0s13.653-34.133 0-47.787l-211.627-211.627c-17.067-17.067-17.067-44.373 0-59.733l211.627-211.627c13.653-13.653 13.653-34.133 0-47.787-6.827-8.533-15.36-11.947-23.893-11.947z" />
<glyph unicode="&#xe601;" glyph-name="pwd_txt_icon" d="M752 80h-480c-54.4 0-96 41.6-96 96v288c0 54.4 41.6 96 96 96h480c54.4 0 96-41.6 96-96v-288c0-54.4-41.6-96-96-96zM272 496c-19.2 0-32-12.8-32-32v-288c0-19.2 12.8-32 32-32h480c19.2 0 32 12.8 32 32v288c0 19.2-12.8 32-32 32h-480zM726.4 528h-64v96c0 70.4-57.6 128-128 128h-44.8c-70.4 0-128-57.6-128-128v-96h-64v96c0 105.6 86.4 192 192 192h44.8c105.6 0 192-86.4 192-192v-96zM528 304c-19.2 0-32 12.8-32 32v96c0 19.2 12.8 32 32 32s32-12.8 32-32v-96c0-19.2-12.8-32-32-32zM592 304c0-35.346-28.654-64-64-64s-64 28.654-64 64c0 35.346 28.654 64 64 64s64-28.654 64-64z" />
<glyph unicode="&#xe602;" glyph-name="user_txt_icon2" d="M512 396.8c-112 0-204.8 96-204.8 217.6s92.8 217.6 204.8 217.6 204.8-96 204.8-217.6c0-118.4-92.8-217.6-204.8-217.6zM512 768c-76.8 0-140.8-67.2-140.8-153.6s64-153.6 140.8-153.6 140.8 67.2 140.8 153.6-64 153.6-140.8 153.6zM681.6 80h-336c-51.2 0-96 28.8-121.6 70.4-25.6 44.8-25.6 96 0 137.6 60.8 102.4 169.6 160 288 160s224-60.8 288-160c25.6-41.6 25.6-92.8 3.2-134.4-25.6-44.8-73.6-73.6-121.6-73.6zM512 384c-96 0-182.4-48-233.6-131.2-12.8-22.4-12.8-48 0-70.4 12.8-25.6 38.4-38.4 64-38.4h336c28.8 0 51.2 16 64 38.4s12.8 48 0 70.4c-48 83.2-134.4 131.2-230.4 131.2z" />
<glyph unicode="&#xe603;" glyph-name="icon1" d="M176.246 925.538v-694.154h612.431l117.169-128h33.477v128h84.677v694.154h-847.754zM668.554 747.323h93.538v-93.538h-93.538v93.538zM422.4 747.323h93.538v-93.538h-93.538v93.538zM880.246 498.215l-4.923-3.938c-92.554-67.938-187.077-102.4-282.585-102.4-55.138 0-107.323 10.831-156.554 30.523-49.231 20.677-91.569 44.308-127.015 71.877l-4.923 3.938v64.985l19.692-11.815c89.6-54.154 180.185-82.708 268.8-82.708 28.554 0 58.092 2.954 86.646 7.877 28.554 5.908 55.138 12.8 78.769 22.646 23.631 8.862 58.092 26.585 102.4 52.185l19.692 10.831v-64zM91.569 138.831v448.985h-84.677v-535.631h64.985v-99.446h26.585l89.6 99.446h471.631v86.646z" />
<glyph unicode="&#xe604;" glyph-name="icon3" d="M832 851.692h-246.154v78.769c0 10.831-8.862 19.692-19.692 19.692h-108.308c-10.831 0-19.692-8.862-19.692-19.692v-78.769h-246.154c-21.662 0-39.385-17.723-39.385-39.385v-827.077c0-21.662 17.723-39.385 39.385-39.385h640c21.662 0 39.385 17.723 39.385 39.385v827.077c0 21.662-17.723 39.385-39.385 39.385zM398.769 772.923c0 10.831 8.862 19.692 19.692 19.692h19.692v-19.692c0-10.831 8.862-19.692 19.692-19.692h108.308c10.831 0 19.692 8.862 19.692 19.692v19.692h19.692c10.831 0 19.692-8.862 19.692-19.692v-19.692c0-10.831-8.862-19.692-19.692-19.692h-187.077c-10.831 0-19.692 8.862-19.692 19.692v19.692zM280.615 733.538c-16.738 0-29.538 12.8-29.538 29.538s12.8 29.538 29.538 29.538c16.738 0 29.538-12.8 29.538-29.538s-12.8-29.538-29.538-29.538zM733.538 312.123c-137.846-56.123-275.692-113.231-413.538-169.354 0.985 32.492 0.985 64 1.969 96.492 98.462 38.4 197.908 75.815 296.369 114.215-0.985 0.985-0.985 2.954-1.969 3.938-98.462 38.4-197.908 75.815-296.369 114.215v94.523c137.846-56.123 275.692-112.246 413.538-167.385v-86.646zM733.538 733.538c-16.738 0-29.538 12.8-29.538 29.538s12.8 29.538 29.538 29.538c16.738 0 29.538-12.8 29.538-29.538s-12.8-29.538-29.538-29.538z" />
<glyph unicode="&#xe605;" glyph-name="icon4" d="M330.831 516.923c88.615 0 160.492 71.877 160.492 161.477s-71.877 161.477-160.492 161.477-160.492-71.877-160.492-161.477 71.877-161.477 160.492-161.477zM656.738 727.631c-35.446-7.877-47.262-37.415-63.015-80.738-49.231-135.877-180.185-222.523-319.015-185.108-139.815 37.415-222.523 180.185-185.108 320 0 0 38.4 130.954 6.892 153.6-23.631 16.738-152.615-272.738-46.277-457.846v0c0 0 67.938-186.092 78.769-250.092 18.708-108.308 111.262-277.662 227.446-272.738 116.185 5.908 51.2 356.431 119.138 402.708 0 0 0 0 0 0 190.031 92.554 207.754 376.123 181.169 370.215zM825.108 287.508c52.185 0 94.523 42.338 94.523 95.508 0 52.185-42.338 95.508-94.523 95.508s-94.523-42.338-94.523-95.508c-0.985-52.185 41.354-95.508 94.523-95.508zM962.954 534.646c-18.708-13.785 3.938-90.585 3.938-90.585 21.662-82.708-26.585-167.385-109.292-189.046s-158.523 29.538-188.062 109.292c-9.846 25.6-16.738 43.323-37.415 48.246-15.754 3.938-5.908-163.446 106.338-218.585 0 0 0 0 0 0 40.369-27.569 1.969-234.338 70.892-238.277 68.923-2.954 119.138 69.908 143.754 193.969 7.877 42.338 29.538 94.523 41.354 122.092 2.954 4.923 4.923 10.831 6.892 15.754 0.985 1.969 1.969 3.938 1.969 3.938s0 0 0 0c38.4 108.308-27.569 253.046-40.369 243.2z" />
<glyph unicode="&#xe606;" glyph-name="icon5" d="M157.538 162.462h344.615v384h-344.615v-384zM610.462 487.385h246.154v59.077h-246.154v-59.077zM610.462 329.846h246.154v59.077h-246.154v-59.077zM610.462 162.462h246.154v59.077h-246.154v-59.077zM905.846 960h-905.846v-1024h1024v919.631c0 58.092-54.154 104.369-118.154 104.369zM59.077-4.923v689.231l848.738-0.985c18.708 0 35.446 3.938 51.2 10.831l5.908-699.077h-905.846zM964.923 782.769c0-19.692-31.508-39.385-59.077-39.385h-846.769v167.385h846.769c27.569 0 59.077-39.385 59.077-59.077v-68.923z" />
<glyph unicode="&#xe607;" glyph-name="icon6" d="M626.215 440.123c96.492 40.369 163.446 134.892 163.446 244.185 0.985 146.708-119.138 265.846-267.815 265.846s-268.8-119.138-268.8-265.846c0-110.277 67.938-203.815 163.446-244.185-198.892-46.277-347.569-223.508-347.569-435.2 0-166.4 326.892 56.123 460.8 218.585-62.031 78.769-80.738 142.769 0.985 142.769 83.692 0 64-64-0.985-142.769 128.985-163.446 445.046-385.969 445.046-218.585 0 211.692-148.677 388.923-348.554 435.2z" />
<glyph unicode="&#xe608;" glyph-name="icon7" d="M857.6 662.646h-45.292c-21.662 0-39.385-17.723-39.385-39.385v-128h-34.462v128c0 21.662-17.723 39.385-39.385 39.385h-45.292c-21.662 0-39.385-17.723-39.385-39.385v-128h-35.446v128c0 21.662-17.723 39.385-39.385 39.385h-45.292c-21.662 0-39.385-17.723-39.385-39.385v-128h-35.446v410.585c0 21.662-17.723 39.385-39.385 39.385h-45.292c-21.662 0-39.385-17.723-39.385-39.385v-683.323h-44.308v233.354c0 21.662-17.723 39.385-39.385 39.385h-45.292c-21.662 0-39.385-17.723-39.385-39.385v-318.031c0-21.662 17.723-39.385 39.385-39.385h128v-158.523h600.615v683.323c1.969 21.662-15.754 39.385-37.415 39.385z" />
<glyph unicode="&#xe609;" glyph-name="icon8" d="M743.385 617.354h-39.385v92.554c0 84.677-45.292 133.908-124.062 133.908h-135.877c-78.769 0-124.062-49.231-124.062-133.908v-92.554h-39.385v92.554c0 128 84.677 173.292 163.446 173.292h135.877c78.769 0 163.446-45.292 163.446-173.292v-92.554zM485.415 330.831c-1.969-8.862-3.938-17.723-7.877-26.585l-15.754-41.354h48.246l-14.769 39.385c-3.938 11.815-7.877 21.662-9.846 28.554zM892.062 647.877h-760.123l-107.323-708.923h974.769l-107.323 708.923zM418.462 203.815h-44.308c-4.923-0.985-8.862-0.985-14.769-0.985s-11.815 0-17.723 0.985h-81.723v157.538h157.538v-157.538zM532.677 204.8l-16.738 42.338h-59.077l-15.754-42.338h-19.692l54.154 140.8h19.692l58.092-140.8h-20.677zM655.754 204.8h-87.631v140.8h18.708v-124.062h69.908v-16.738zM783.754 204.8h-105.354v140.8h102.4v-15.754h-83.692v-43.323h77.785v-16.738h-77.785v-48.246h86.646v-16.738zM404.677 223.508c3.938 6.892 6.892 13.785 6.892 21.662s-1.969 13.785-5.908 19.692-9.846 10.831-17.723 14.769c-5.908 2.954-15.754 5.908-31.508 8.862s-24.615 6.892-28.554 9.846c-3.938 2.954-5.908 7.877-5.908 12.8 0 5.908 2.954 10.831 7.877 14.769s13.785 5.908 24.615 5.908c10.831 0 18.708-1.969 24.615-6.892s8.862-10.831 9.846-20.677l17.723 0.985c0 7.877-2.954 15.754-6.892 22.646s-10.831 11.815-18.708 14.769-16.738 4.923-27.569 4.923c-9.846 0-17.723-1.969-25.6-4.923s-12.8-6.892-16.738-12.8c-3.938-5.908-5.908-12.8-5.908-19.692s1.969-12.8 4.923-17.723 7.877-9.846 14.769-12.8c4.923-2.954 13.785-5.908 27.569-8.862s21.662-4.923 24.615-6.892c5.908-1.969 9.846-4.923 12.8-7.877s3.938-6.892 3.938-11.815c0-3.938-0.985-8.862-3.938-11.815s-6.892-6.892-11.815-8.862-11.815-2.954-18.708-2.954c-7.877 0-14.769 0.985-21.662 3.938s-10.831 6.892-13.785 10.831-4.923 9.846-5.908 17.723l-17.723-1.969c0-9.846 2.954-17.723 7.877-25.6s11.815-12.8 20.677-16.738c3.938-1.969 8.862-2.954 14.769-3.938h30.523c4.923 0.985 8.862 1.969 12.8 3.938 7.877 2.954 13.785 7.877 17.723 14.769z" />
<glyph unicode="&#xe60a;" glyph-name="icon9" d="M969.846 743.385h-316.062c-5.908 4.923-10.831 9.846-17.723 14.769-41.354 32.492-90.585 49.231-142.769 51.2-10.831 44.308-34.462 82.708-69.908 110.277-100.431 77.785-258.954 40.369-354.462-82.708s-91.569-285.538 7.877-363.323c6.892-5.908 14.769-10.831 22.646-14.769-7.877-60.062-1.969-118.154 18.708-168.369v0-354.462h905.846v752.246c0 30.523-24.615 55.138-54.154 55.138zM490.338 672.492l10.831-55.138 142.769-70.892 34.462-16.738c0-13.785-0.985-27.569-2.954-42.338-7.877-55.138-30.523-111.262-69.908-161.477-100.431-129.969-266.831-168.369-372.185-86.646-24.615 18.708-43.323 42.338-57.108 69.908 0 0 0 0 0 0v125.046c-7.877 0.985-15.754 1.969-24.615 3.938v0c7.877-1.969 15.754-2.954 24.615-3.938 87.631-8.862 187.077 34.462 254.031 122.092 29.538 36.431 49.231 75.815 60.062 116.185zM125.046 548.431c-1.969 1.969-3.938 3.938-6.892 5.908v0c-57.108 57.108-56.123 161.477 5.908 241.231 65.969 85.662 176.246 111.262 246.154 57.108 17.723-13.785 31.508-31.508 40.369-52.185 7.877-16.738 11.815-35.446 12.8-55.138 0-0.985 0-1.969 0-2.954 0.985-19.692-0.985-39.385-6.892-59.077-7.877-28.554-20.677-57.108-41.354-82.708-53.169-67.938-133.908-98.462-198.892-80.738-1.969 0.985-3.938 0.985-5.908 1.969-14.769 4.923-28.554 11.815-40.369 21.662-1.969 1.969-3.938 3.938-4.923 4.923zM964.923-4.923h-787.692v208.738c5.908-4.923 11.815-10.831 17.723-15.754 108.308-83.692 269.785-63.015 390.892 41.354l111.262-102.4c22.646-2.954 38.4 7.877 46.277 33.477l-95.508 133.908c46.277 60.062 73.846 127.015 83.692 192h233.354v-491.323zM964.923 546.462h-229.415c-0.985 50.215-12.8 97.477-35.446 137.846h235.323c21.662 0 29.538-7.877 29.538-29.538v-108.308zM598.646 487.385l-103.385 92.554c0 0-21.662-165.415-143.754-183.138 0 0 13.785-57.108 46.277-80.738s69.908-30.523 104.369-14.769c61.046 29.538 73.846 66.954 113.231 171.323l-16.738 14.769z" />
<glyph unicode="&#xe800;" glyph-name="mtr_icon_pwd" d="M806.4 550.4h-17.067v102.4c0 53.333-21.333 100.267-57.6 134.4s-83.2 55.467-138.667 55.467h-110.933c-53.333 0-102.4-21.333-138.667-55.467s-57.6-81.067-57.6-134.4v-102.4h-25.6c-61.867 0-110.933-49.067-110.933-108.8v-281.6c0-59.733 49.067-108.8 110.933-108.8h544c61.867 0 110.933 49.067 110.933 108.8v283.733c2.133 59.733-46.933 106.667-108.8 106.667zM396.8 652.8c0 23.467 8.533 42.667 25.6 57.6 14.933 14.933 36.267 23.467 59.733 23.467h110.933c23.467 0 44.8-8.533 59.733-23.467s25.6-34.133 25.6-57.6v-102.4h-281.6v102.4zM537.6 196.267v0c-46.933 0-83.2 36.267-83.2 81.067 0 32 19.2 59.733 46.933 72.533v55.467c0 19.2 17.067 34.133 36.267 34.133s36.267-14.933 36.267-34.133v-55.467c27.733-12.8 46.933-40.533 46.933-72.533 0-44.8-38.4-81.067-83.2-81.067z" />
<glyph unicode="&#xe801;" glyph-name="mtr_icon_setting" d="M925.867 522.667v0c-78.933 0-119.467 96-64 153.6v0c19.2 19.2 19.2 51.2 0 70.4l-36.267 36.267c-19.2 19.2-51.2 19.2-70.4 0v0c-55.467-55.467-153.6-17.067-153.6 64v0c2.133 27.733-21.333 49.067-49.067 49.067h-51.2c-27.733 0-51.2-23.467-51.2-51.2v0c0-78.933-96-119.467-153.6-64v0c-19.2 19.2-51.2 19.2-70.4 0l-32-34.133c-19.2-19.2-19.2-51.2 0-70.4v0c55.467-55.467 17.067-153.6-64-153.6v0c-27.733 0-51.2-23.467-51.2-51.2v-51.2c0-27.733 23.467-51.2 51.2-51.2v0c78.933 0 119.467-96 64-153.6v0c-19.2-19.2-19.2-51.2 0-70.4l36.267-36.267c19.2-19.2 51.2-19.2 70.4 0v0c55.467 55.467 153.6 17.067 153.6-64 0-27.733 23.467-51.2 51.2-51.2h51.2c27.733 0 51.2 23.467 51.2 51.2 0 78.933 96 119.467 153.6 64v0c19.2-19.2 51.2-19.2 70.4 0l36.267 36.267c19.2 19.2 19.2 51.2 0 70.4v0c-55.467 55.467-17.067 153.6 64 153.6v0c27.733 0 51.2 23.467 51.2 51.2v51.2c-6.4 29.867-29.867 51.2-57.6 51.2zM529.067 247.467c-110.933 0-200.533 89.6-200.533 200.533s89.6 200.533 200.533 200.533c110.933 0 200.533-89.6 200.533-200.533s-89.6-200.533-200.533-200.533z" />
<glyph unicode="&#xe802;" glyph-name="mtr_icon_time" d="M526.222 923.022c-258.844 0-469.333-210.489-469.333-469.333s210.489-469.333 469.333-469.333c258.844 0 469.333 210.489 469.333 469.333s-210.489 469.333-469.333 469.333zM526.222 75.378c-207.644 0-378.311 170.667-378.311 378.311s170.667 378.311 378.311 378.311c207.644 0 378.311-170.667 378.311-378.311s-170.667-378.311-378.311-378.311zM571.733 723.911h-91.022v-295.822l236.089-164.978 51.2 73.956-199.111 139.378v247.467z" />
<glyph unicode="&#xe803;" glyph-name="mtr_icon1" d="M405.333 312.889c12.8-1.422 83.911 29.867 85.333 56.889 0 15.644-24.178 32.711-71.111 45.511-12.8 1.422-25.6 1.422-39.822 1.422-78.222 0-92.444-24.178-149.333-65.422-52.622-36.978-122.311 61.156-122.311-203.378 0-52.622 69.689-86.756 157.867-102.4-5.689 8.533 27.022-14.222 27.022-2.844 0 119.467 0 177.778 28.444 213.333 34.133 44.089 49.778 59.733 83.911 56.889zM490.667 810.667c-15.644-21.333-25.6-48.356-28.444-71.111-2.844-24.178-7.111-55.467-9.956-85.333-17.067 1.422-52.622 0-45.511-28.444 8.533-38.4 14.222-69.689 14.222-69.689l38.4-25.6c11.378-32.711 29.867-66.844 45.511-88.178 32.711-41.244 72.533-56.889 128-56.889 48.356 0 83.911 7.111 113.778 42.667 21.333 25.6 36.978 64 46.933 102.4l38.4 25.6c0 0 5.689 32.711 14.222 71.111 4.267 21.333-14.222 28.444-31.289 29.867 1.422 7.111 1.422 15.644 2.844 27.022 1.422 8.533 0 35.556 0 56.889 0 28.444-14.222 71.111-14.222 71.111 5.689 8.533-25.6 9.956-56.889 14.222-32.711 4.267-65.422 12.8-42.667 28.444 24.178 17.067-115.2 12.8-142.222 0-21.333-11.378-58.311-28.444-71.111-44.089zM817.778 284.444c-48.356 52.622-95.289 68.267-184.889 68.267-81.067 0-95.289-24.178-156.444-68.267-54.044-38.4-128 64-128-211.911 0-153.6 570.311-153.6 568.889 0-2.844 273.067-49.778 157.867-99.556 211.911zM635.733-4.267l-56.889 58.311 42.667 200.533c-17.067 4.267-28.444 18.489-28.444 34.133 0 19.911 18.489 35.556 42.667 35.556 22.756 0 42.667-15.644 42.667-35.556 0-15.644-11.378-28.444-28.444-34.133l42.667-200.533-56.889-58.311zM206.222 625.778c12.8-18.489 34.133-25.6 34.133-25.6 11.378-32.711 28.444-65.422 44.089-83.911 31.289-39.822 69.689-55.467 122.311-55.467 5.689 0 22.756 7.111 27.022 8.533-11.378 18.489-9.956-14.222-28.444 42.667l-42.667 56.889c0 0-8.533 48.356 0 85.333 5.689 27.022 25.6 58.311 42.667 56.889 2.844 35.556 5.689 82.489 14.222 99.556s35.556 46.933 56.889 56.889c44.089 21.333 42.667 14.222 42.667 14.222 5.689 8.533 1.422 9.956-28.444 14.222-31.289 4.267-52.622 1.422-29.867 17.067 22.756 17.067-95.289 12.8-122.311 0-21.333-9.956-56.889-25.6-68.267-41.244-15.644-19.911-24.178-46.933-27.022-68.267-2.844-22.756-7.111-52.622-9.956-82.489-17.067 1.422-49.778 0-44.089-28.444 4.267-22.756 5.689-49.778 17.067-66.844z" />
<glyph unicode="&#xe804;" glyph-name="mtr_icon2" d="M519.111 381.156c-22.756 0-39.822-1.422-55.467-5.689l55.467-233.244 39.822 237.511c-12.8 0-25.6 1.422-39.822 1.422zM305.778 583.111l38.4-25.6c11.378-32.711 29.867-66.844 45.511-88.178 32.711-41.244 72.533-56.889 128-56.889 48.356 0 83.911 7.111 113.778 42.667 21.333 25.6 36.978 64 46.933 102.4l38.4 25.6c0 0 5.689 32.711 14.222 71.111 4.267 21.333-14.222 28.444-31.289 29.867 1.422 7.111 1.422 15.644 2.844 27.022 1.422 8.533 0 35.556 0 56.889 0 28.444-14.222 71.111-14.222 71.111 5.689 8.533-25.6 9.956-56.889 14.222-32.711 4.267-65.422 12.8-42.667 28.444 24.178 17.067-115.2 12.8-142.222 0-21.333-9.956-58.311-27.022-71.111-42.667-15.644-21.333-25.6-48.356-28.444-71.111-2.844-24.178-7.111-55.467-9.956-85.333-17.067 1.422-52.622 0-45.511-28.444 8.533-39.822 14.222-71.111 14.222-71.111zM704 312.889c-8.533 8.533-15.644 15.644-24.178 22.756l-89.6-51.2 56.889-28.444-128-113.778-142.222 113.778 42.667 42.667-42.667 25.6c-4.267-2.844-9.956-7.111-14.222-11.378-54.044-38.4-128 64-128-211.911 0-153.6 570.311-153.6 568.889 0-2.844 273.067-49.778 157.867-99.556 211.911z" />
<glyph unicode="&#xe805;" glyph-name="mtr_icon3" d="M682.667 433.778c0 91.022-72.533 164.978-162.133 164.978-44.089 0-85.333-18.489-113.778-48.356l86.756-110.933-132.267 27.022c-1.422-9.956-2.844-21.333-2.844-31.289 0-91.022 72.533-164.978 162.133-164.978 89.6-1.422 162.133 72.533 162.133 163.556zM960 446.578c-59.733 174.933-237.511 291.556-439.467 291.556-203.378 0-379.733-116.622-439.467-291.556l58.311-21.333c51.2 149.333 204.8 250.311 381.156 250.311 174.933 0 327.111-98.133 379.733-244.622v-11.378c-52.622-146.489-204.8-244.622-379.733-244.622v-62.578c203.378 0 379.733 116.622 439.467 291.556l1.422 5.689v32.711l-1.422 4.267z" />
<glyph unicode="&#xe806;" glyph-name="mtr_icon_edit" d="M689.067 776.533c23.467 49.067 2.133 106.667-44.8 130.133v0c-46.933 23.467-106.667 2.133-130.133-44.8l-38.4-78.933 174.933-85.333 38.4 78.933zM388.267 149.333l238.933 501.333-174.933 85.333-238.933-501.333 32-155.733 142.933 70.4zM192 64v-64h682.667v64h-682.667z" />
<glyph unicode="&#xe807;" glyph-name="mtr_icon_email" d="M539.733 539.733c-25.6 0-44.8-12.8-61.867-36.267-14.933-23.467-23.467-55.467-23.467-89.6 0-23.467 4.267-42.667 14.933-57.6s23.467-21.333 42.667-21.333c25.6 0 44.8 12.8 59.733 38.4s21.333 59.733 21.333 100.267c2.133 42.667-17.067 66.133-53.333 66.133zM535.467 797.867c-200.533 0-362.667-162.133-362.667-362.667s162.133-362.667 362.667-362.667c200.533 0 362.667 162.133 362.667 362.667s-162.133 362.667-362.667 362.667zM755.2 343.467c-25.6-32-55.467-46.933-91.733-46.933-46.933 0-68.267 23.467-70.4 72.533h-2.133c-14.933-49.067-44.8-72.533-89.6-72.533-27.733 0-51.2 10.667-70.4 32-17.067 21.333-27.733 49.067-27.733 85.333 0 46.933 12.8 87.467 36.267 117.333 23.467 32 55.467 46.933 93.867 46.933 14.933 0 27.733-4.267 40.533-10.667 12.8-8.533 19.2-17.067 21.333-27.733h2.133c0 0 2.133 12.8 4.267 36.267h42.667c-10.667-113.067-14.933-172.8-14.933-177.067 0-42.667 12.8-61.867 36.267-61.867 21.333 0 40.533 12.8 55.467 36.267s21.333 55.467 21.333 93.867c0 57.6-17.067 102.4-53.333 138.667s-85.333 53.333-149.333 53.333c-61.867 0-113.067-21.333-153.6-64s-61.867-98.133-61.867-162.133c0-64 19.2-115.2 57.6-153.6s89.6-57.6 155.733-57.6c51.2 0 96 8.533 132.267 25.6v-40.533c-36.267-14.933-81.067-23.467-136.533-23.467-76.8 0-138.667 23.467-185.6 68.267-46.933 46.933-70.4 106.667-70.4 181.333 0 76.8 25.6 140.8 74.667 192s113.067 76.8 189.867 76.8c72.533 0 132.267-21.333 177.067-64 46.933-42.667 70.4-98.133 70.4-164.267 4.267-57.6-8.533-98.133-34.133-130.133z" />
<glyph unicode="&#xe808;" glyph-name="mtr_icon_help" d="M522.667-32c-264.533 0-480 215.467-480 480s215.467 480 480 480 480-215.467 480-480-215.467-480-480-480zM522.667 864c-230.4 0-416-187.733-416-416s185.6-416 416-416 416 185.6 416 416-185.6 416-416 416zM558.933 339.2h-70.4v21.333c0 27.733 4.267 51.2 10.667 70.4 8.533 17.067 21.333 38.4 44.8 59.733 23.467 23.467 38.4 40.533 42.667 49.067s6.4 19.2 6.4 32c0 19.2-6.4 36.267-19.2 46.933-12.8 12.8-27.733 19.2-46.933 19.2-40.533 0-66.133-27.733-76.8-81.067l-70.4 10.667c2.133 42.667 17.067 76.8 42.667 102.4 27.733 27.733 59.733 40.533 100.267 40.533s74.667-12.8 102.4-40.533c27.733-27.733 40.533-59.733 40.533-100.267 0-21.333-4.267-40.533-14.933-57.6-8.533-19.2-29.867-42.667-61.867-74.667-17.067-17.067-25.6-29.867-29.867-40.533 2.133-14.933 0-32 0-57.6zM488.533 213.333v93.867h76.8v-93.867h-76.8z" />
<glyph unicode="&#xe809;" glyph-name="mtr_icon_menu" d="M377.6 893.867h-288v-288c0-64 53.333-117.333 117.333-117.333h170.667c64 0 117.333 53.333 117.333 117.333v170.667c0 66.133-51.2 117.333-117.333 117.333zM689.067 893.867c-64 0-117.333-53.333-117.333-117.333v-170.667c0-64 53.333-117.333 117.333-117.333h170.667c64 0 117.333 53.333 117.333 117.333v288h-288zM377.6 405.333h-170.667c-64 0-117.333-53.333-117.333-117.333v-288h288c64 0 117.333 53.333 117.333 117.333v170.667c0 66.133-51.2 117.333-117.333 117.333zM859.733 405.333h-170.667c-64 0-117.333-53.333-117.333-117.333v-170.667c0-64 53.333-117.333 117.333-117.333h288v288c0 66.133-53.333 117.333-117.333 117.333zM913.067 64h-224c-29.867 0-53.333 23.467-53.333 53.333v170.667c0 29.867 23.467 53.333 53.333 53.333h170.667c29.867 0 53.333-23.467 53.333-53.333v-224z" />
<glyph unicode="&#xe80a;" glyph-name="mtr_icon_phone" d="M522.667 810.667c-200.533 0-362.667-162.133-362.667-362.667s162.133-362.667 362.667-362.667c200.533 0 362.667 162.133 362.667 362.667s-162.133 362.667-362.667 362.667zM748.8 277.333c0 0-17.067-17.067-38.4-29.867-66.133-46.933-164.267-61.867-296.533 70.4-128 128-119.467 224-74.667 290.133 12.8 25.6 34.133 44.8 34.133 44.8s29.867 29.867 76.8-19.2c23.467-23.467 46.933-59.733 38.4-85.333-6.4-19.2-59.733-38.4-83.2-44.8 4.267-29.867 23.467-66.133 74.667-117.333s87.467-70.4 117.333-74.667c6.4 21.333 25.6 74.667 46.933 83.2 25.6 8.533 61.867-12.8 85.333-38.4 49.067-49.067 19.2-78.933 19.2-78.933z" />
</font>
</defs>
</svg>
